<?xml version="1.0" encoding="utf-8"?>
<!-- Generator: Adobe Illustrator 23.0.2, SVG Export Plug-In . SVG Version: 6.00 Build 0)  -->
<svg version="1.1" id="bag_with_money" xmlns="http://www.w3.org/2000/svg" xmlns:xlink="http://www.w3.org/1999/xlink" x="0px"
	 y="0px" viewBox="0 0 400 400" style="enable-background:new 0 0 400 400;" xml:space="preserve">
<style type="text/css">
	.st0{fill:#4D1166;}
	.st1{fill:#8405B9;}
	.st2{clip-path:url(#SVGID_3_);}
	.st3{clip-path:url(#SVGID_4_);fill:url(#SVGID_5_);}
	.st4{fill:#FFAC73;}
	.st5{fill:#E3784E;}
	.st6{fill:#52415E;}
	.st7{fill:#443551;}
	.st8{opacity:0.32;fill:#230100;enable-background:new    ;}
	.st9{fill:#F93D31;}
	.st10{fill:#D8FFF2;}
	.st11{fill:#FFC4CB;}
	.st12{opacity:0.2;fill:#590800;enable-background:new    ;}
	.st13{fill:#FFFFFF;}
	.st14{fill:#A43113;}
	.st15{fill:#722E00;}
	.st16{fill:#5B1800;}
	.st17{opacity:0.53;fill:#FFFFFF;enable-background:new    ;}
	.st18{opacity:0.61;fill:#111111;enable-background:new    ;}
	.st19{fill:#B70400;}
	.st20{fill:#FFE2E6;}
	.st21{opacity:0.49;fill:#FFFFFF;enable-background:new    ;}
	.st22{fill:#588073;}
	.st23{fill:#FFC50C;}
	.st24{opacity:0.2;fill:#102100;enable-background:new    ;}
	.st25{fill:#9E5220;}
	.st26{fill:#253854;}
	.st27{fill:#3C4C66;}
	.st28{fill:#586680;}
	.st29{opacity:0.83;fill:#3C4C66;enable-background:new    ;}
	.st30{fill:#B0CBFF;}
	.st31{clip-path:url(#SVGID_8_);}
	.st32{clip-path:url(#SVGID_9_);fill:url(#SVGID_10_);}
	.st33{opacity:0.21;fill:url(#SVGID_11_);enable-background:new    ;}
	.st34{fill:#AF5010;}
	.st35{fill:#72A090;}
	.st36{fill:#84D3B6;}
	.st37{opacity:0.47;fill:#FFFFFF;enable-background:new    ;}
	.st38{fill:#5B3E43;}
	.st39{fill:#806266;}
	.st40{fill:#610691;}
	.st41{opacity:0.1;}
	.st42{fill:#9FFFF8;}
	.st43{fill:#42E8E0;}
	.st44{opacity:0.4;fill:#42E8E0;enable-background:new    ;}
	.st45{opacity:0.2;fill:#42E8E0;enable-background:new    ;}
	.st46{clip-path:url(#SVGID_13_);}
	.st47{fill:#18B2A3;}
	.st48{fill:#4344D1;}
	.st49{filter:url(#Adobe_OpacityMaskFilter);}
	.st50{filter:url(#Adobe_OpacityMaskFilter_1_);}
	.st51{mask:url(#SVGID_14_);fill:url(#SVGID_15_);}
	.st52{opacity:0.7;fill:url(#SVGID_16_);}
</style>
<rect class="st0" width="400" height="400"/>
<path class="st1" d="M383.62,363.16c8.94-22.42,13.85-46.88,13.85-72.49c0-108.21-87.72-195.93-195.93-195.93
	C93.33,94.73,5.61,182.46,5.61,290.67c0,25.61,4.92,50.07,13.85,72.49H383.62z"/>
<g>
	<g>
		<g>
			<defs>
				<polygon id="SVGID_1_" points="1,1 2,1 1,2 				"/>
			</defs>
			<defs>
				<polygon id="SVGID_2_" points="-1,-1 -2,-1 -1,-2 				"/>
			</defs>
			<clipPath id="SVGID_3_">
				<use xlink:href="#SVGID_1_"  style="overflow:visible;"/>
			</clipPath>
			<clipPath id="SVGID_4_" class="st2">
				<use xlink:href="#SVGID_2_"  style="overflow:visible;"/>
			</clipPath>
			
				<linearGradient id="SVGID_5_" gradientUnits="userSpaceOnUse" x1="0.06" y1="224.315" x2="365.41" y2="224.315" gradientTransform="matrix(1 0 0 -1 0 402)">
				<stop  offset="4.950500e-03" style="stop-color:#000000"/>
				<stop  offset="1" style="stop-color:#FFFFFF"/>
			</linearGradient>
			<polygon class="st3" points="256.88,272.78 248.06,189.55 365.41,191.23 5.59,49.29 0.06,306.08 			"/>
		</g>
	</g>
	<path class="st4" d="M136.45,213.75c0,0-2.19,1.71-5.99,1.58c-3.8-0.12-8.08-2.99-8.08-2.99s1.14-0.46,2.22-1.47v-0.01
		c0.87-0.8,1.7-1.96,1.87-3.52c0.51-4.75-0.43-6.67-0.43-6.67l7.25,0.75c0,0-0.43,2.46,0.11,5.39c0.01,0,0.01,0,0.01,0
		c0.06,0.39,0.15,0.79,0.27,1.19C134.62,211.41,136.45,213.75,136.45,213.75z"/>
	<path class="st5" d="M133.39,206.81c-0.57,0.06-1.72,0.23-3.27,0.7c-2.27,0.68-5.53,3.37-5.53,3.37v-0.01
		c0.87-0.8,1.7-1.96,1.87-3.52c0.51-4.75-0.43-6.67-0.43-6.67l7.25,0.75C133.28,201.43,132.85,203.89,133.39,206.81z"/>
	<polygon class="st6" points="73.14,290.08 61.52,239.37 78.92,233.75 88.02,290.38 	"/>
	<polygon class="st7" points="78.92,233.75 133.39,234.81 136.45,290.88 88.02,290.38 	"/>
	<polygon class="st8" points="91.27,233.99 80.19,241.64 68.16,268.37 73.14,290.08 107.69,290.38 103.72,264.3 	"/>
	<path class="st4" d="M197.09,272.17c2.49,0.29,11.07-5.93,14.62-6.02c3.55-0.09,12.77,0.32,12.77,0.32s-0.68,1.99-4.55,2.35
		c-3.86,0.36-7.52,1.66-7.52,1.66s4.19,2.54,8.7,3.17s7.79-0.05,8.82,0.67c1.03,0.71-5.42,2.45-8.55,2.06
		c-3.18-0.39-4.28-0.37-4.28-0.37s2.85,0.67,6.81,0.67c3.97,0,7.47-1.21,8.36-0.55s-5.12,3.22-10.88,3.36
		c-3.72,0.09-5.45-0.6-5.45-0.6s1.87,0.47,6.26,0.56c4.39,0.1,7.1-1.37,7.72-0.62c0.62,0.76-5.42,3.16-9.74,3.12
		c-4.31-0.04-5.88-0.56-5.88-0.56s2.43,0.88,5.74,1.11c3.24,0.22,7.77-1.47,6.98-0.56c-0.8,0.9-6.12,4.34-13.29,2.41
		c-4.93-1.33-16.63-6.45-18.79-7.45C192.79,275.89,194.6,271.88,197.09,272.17z"/>
	<path class="st9" d="M221.67,273.61l-2.56,5.28l-2.59,5.34c0,0-17.66-4.44-32.32-7.7c-8.31-1.84-25.23-24.81-26.35-26.33
		c-0.02-0.03-0.03-0.05-0.04-0.06c-0.01-0.02-0.01-0.02-0.01-0.02s-0.5,4.76-0.82,10.66c-0.22,4.4-0.34,9.44-0.07,13.63
		c0.02,0.26,0.03,0.52,0.05,0.78v0.02c0.64,9.36,2.09,23.14,2.09,23.14l-51.81,1.54c0,0-1.12-5.13-1.78-11.98
		c-2.73,0.24-6.73-0.15-7.22-0.53c-3.09-2.52-7.64-48.16-7.11-63.06c0.08-2.37,0.34-3.94,0.84-4.44c3.09-3.21,30.39-7.52,30.39-7.52
		l14.08,1.4c0,0,17.43,1.14,24.33,2.78c1.26,0.3,2.16,0.62,2.55,0.95c0.07,0.05,0.16,0.17,0.3,0.33
		c2.26,2.81,13.46,20.76,20.39,31.49c2.88,4.48,5.02,7.69,5.47,8.02C194.14,260.81,221.67,273.61,221.67,273.61z"/>
	<path class="st10" d="M140.73,214.07c0,0-2.05,19.65-4.27,19.26c-0.31-0.05-0.86-0.48-1.59-1.17
		c-4.57-4.35-15.99-19.24-15.99-19.24l4.62-1.2c0,0,3.01-3.46,7.18-3.72c4.29-0.26,5.38,5.2,5.38,5.2l2.3,0.42L140.73,214.07z"/>
	<path class="st11" d="M118.88,212.93l-3.8,0.67c0,0,18.4,24.35,22.95,24.03s5.58-23.32,5.58-23.32l-2.88-0.24
		c0,0-1.85,18.22-4.27,18.43C134.25,232.69,118.88,212.93,118.88,212.93z"/>
	<path class="st12" d="M160.79,216.53c-0.82,0.12-19.29-3.21-36.2,6.28c-12.1,6.79-33.45,1.49-33.45,1.49
		c0.08-2.36,0.35-3.94,0.84-4.44c3.09-3.21,30.39-7.52,30.39-7.52l14.08,1.41C136.45,213.75,153.88,214.89,160.79,216.53z"/>
	<polygon class="st7" points="165.92,163.1 159.17,165.18 158.69,167.85 166.48,166.26 	"/>
	<path class="st4" d="M164.45,185.5c-0.09,2.64-2.68,9.12-12.65,12.96c0,0-0.02,0-0.04,0.01c-4.08,1.57-9.4,2.7-16.29,2.93
		c-27.44,0.94-37.7-22.57-41.04-40.52c-0.28-1.5-0.46-2.96-0.54-4.38c-0.07-1.2-0.08-2.37-0.01-3.5
		c0.44-7.06,3.69-12.84,10.32-16.79c6.16-3.68,15.22-5.79,27.68-5.85c11.66-0.06,18.4,2.76,22.4,6.42
		c4.35,4.01,5.47,9.02,6.21,12.42c0.29,1.32,0.37,2.85,0.31,4.48c-0.21,6.39-2.49,14.3-2.49,17.57
		C158.29,175.36,164.58,181.78,164.45,185.5z"/>
	<path class="st5" d="M111.78,152.06c-2.05,1.97-8.9,25.85,5.64,40.41c11.89,11.9,33.26,6.24,34.33,6c-4.08,1.57-9.4,2.7-16.29,2.93
		c-27.44,0.94-37.7-22.57-41.04-40.52c-0.28-1.5-0.46-2.96-0.54-4.38l-0.01-3.5c0.44-7.06,3.69-12.84,10.32-16.79l20.39-2.64
		l29.69,3.21c4.35,4.01,5.47,9.02,6.21,12.42c0.29,1.32,0.37,2.85,0.31,4.48c-1.24-2.66-6.04-7.24-13.44-8.37
		C133.88,143.26,113.84,150.09,111.78,152.06z"/>
	<g>
		<ellipse class="st13" cx="153" cy="167.37" rx="5.88" ry="10.93"/>
		<path class="st14" d="M157.83,170.83c-0.29,3.23-2.49,5.67-4.91,5.46c-2.42-0.22-4.14-3.02-3.85-6.25s2.49-5.67,4.91-5.46
			C156.4,164.8,158.12,167.6,157.83,170.83z"/>
		<path class="st15" d="M157.22,171.37c-0.21,2.32-1.78,4.07-3.52,3.91s-2.97-2.16-2.76-4.48c0.21-2.32,1.78-4.07,3.52-3.91
			C156.19,167.05,157.43,169.05,157.22,171.37z"/>
		<ellipse class="st13" cx="150.01" cy="170.44" rx="2.31" ry="0.72"/>
	</g>
	<g>
		<ellipse class="st13" cx="126.03" cy="167.47" rx="7.25" ry="12.37"/>
		<path class="st14" d="M122.65,170.2c0,3.64,2.21,6.59,4.93,6.59s4.93-2.95,4.93-6.59s-2.21-6.59-4.93-6.59
			S122.65,166.56,122.65,170.2z"/>
		<path class="st15" d="M124.58,170.64c0,2.61,1.58,4.72,3.53,4.72s3.53-2.11,3.53-4.72s-1.58-4.72-3.53-4.72
			C126.17,165.91,124.58,168.03,124.58,170.64z"/>
		<path class="st13" d="M126.03,169.31c0,0.49-1.28,0.89-2.85,0.89s-2.85-0.4-2.85-0.89s1.28-0.89,2.85-0.89
			S126.03,168.82,126.03,169.31z"/>
	</g>
	<path class="st16" d="M128.39,182.48c0,0,7.93,3.54,14.15,4.69c6.67,1.23,12.18,0.87,12.18,0.87l0,0c0,0-7.04,7.35-15.13,7.35
		c-8.47,0-10.95-11.16-10.95-11.16L128.39,182.48z"/>
	<g>
		<path class="st13" d="M124.65,161.43c-1.04,1.64-2.23,2.75-2.66,2.48s0.06-1.83,1.1-3.47s2.23-2.75,2.66-2.48
			C126.18,158.24,125.69,159.79,124.65,161.43z"/>
		<path class="st13" d="M154.2,161.43c-1.04,1.64-2.23,2.75-2.66,2.48c-0.43-0.27,0.06-1.83,1.1-3.47c1.04-1.64,2.23-2.75,2.66-2.48
			S155.24,159.79,154.2,161.43z"/>
		<g>
			<polygon class="st7" points="141.3,164.4 147.7,164.4 147.35,165.96 141.3,165.96 			"/>
			<path class="st17" d="M147.35,166.78c0,0,1.15,13.05,10.3,13.05c9.14,0,8.84-13.86,8.84-13.86s-1.31-12.17-9.47-12.17
				C148.85,153.81,147.35,166.78,147.35,166.78z"/>
			<path class="st17" d="M118.55,167.2c0,0,1.35,13.42,12.08,13.42S141,166.37,141,166.37s-2.34-12.51-12.19-12.51
				C119.22,153.86,118.55,167.2,118.55,167.2z"/>
			<path class="st7" d="M156.98,153.13c-5.57,0-10.09,6.15-10.09,13.73s4.52,13.73,10.09,13.73c5.57,0,10.09-6.15,10.09-13.73
				C167.07,159.28,162.55,153.13,156.98,153.13z M156.98,179.02c-4.94,0-8.94-5.44-8.94-12.16c0-6.71,4-12.16,8.94-12.16
				s8.94,5.44,8.94,12.16C165.92,173.57,161.91,179.02,156.98,179.02z"/>
			<path class="st7" d="M129.71,153.17c-6.54,0-11.84,6.32-11.84,14.11s5.3,14.11,11.84,14.11s11.84-6.32,11.84-14.11
				S136.25,153.17,129.71,153.17z M129.71,179.79c-5.79,0-10.49-5.6-10.49-12.5s4.7-12.5,10.49-12.5c5.79,0,10.49,5.6,10.49,12.5
				C140.2,174.19,135.5,179.79,129.71,179.79z"/>
		</g>
	</g>
	<path class="st5" d="M100.56,179.79c0,0-9.81-5.68-16.22-3.61c-6.41,2.07,2.05,13.32,9.48,15.73c7.44,2.42,12.01-3.77,12.01-3.77
		L100.56,179.79z"/>
	<path d="M162.54,154.21c0.05-0.39,0.73-5.18-1-10.27c-1.69-5.02-5.54-9.1-5.95-9.52c0.38,0.48,3.52,4.48,4.83,8.75
		c1.42,4.56,1.67,9.31,1.67,9.31s-1.35-10.53-14.97-13.03c-9.86-1.81-19.54,5.64-30.9,5.01c-10.37-0.58-12.31-1.6-12.31-1.6
		s-2.76,12.19-1.6,21.54c1.15,9.36,6.86,20.07,6.86,20.07l-5.46,0.32c0,0-4.16-5-11.69-8.44c0,0-11.92-18.16-11.85-27.78
		c0.07-9.05,17.06-13.97,17.06-13.97s0.94-1.58,2.76-3.9c0,0,0,0,0.01-0.01c0-0.01,0-0.01,0-0.01c6.14-7.79,22.15-23.79,45.53-15.45
		c7.16,2.54,11.75,6.39,14.62,10.68C168.28,137.98,162.75,153.65,162.54,154.21z"/>
	<path d="M116.19,149.37c0,0,4.39-3.48,9.71-4.83s8.27-1.28,8.27-1.28v2.56l1.6-2.57c0,0,0.06,3.21-1.09,4.17
		c-1.15,0.96-4.42,1.08-8.66,1.6c-4.88,0.6-9.43,3.02-9.43,3.02L116.19,149.37z"/>
	<path class="st4" d="M141.28,183.05c0,0,4.83,2.56,8.42,1.1c3.59-1.45,3.34-4.47,2.09-7.89s-6.11-10.3-6.11-10.3L141.28,183.05z"/>
	<path class="st5" d="M139.38,181.87c0,0,2.03,1.92,5.96,2.97c4.66,1.25,8.11,0.82,9.75-1.62c1.75-2.61-8.53-15.87-8.53-15.87
		s7.72,11.7,6.07,14.46C149.72,186.7,139.38,181.87,139.38,181.87z"/>
	<path class="st13" d="M129.78,183.64c0,0,7.34,3.38,13.8,4.36c6.45,0.98,8.09,0.56,8.09,0.56l-3.16,2.29c0,0-3.76,0.85-9.79-1.2
		s-8.94-4.85-8.94-4.85V183.64z"/>
	<path class="st13" d="M133.28,191.4c0,0,2.19,1.58,5.11,2.27c2.93,0.68,5.04,0.49,5.04,0.49s-3.06,1.6-5.71,0.62
		C135.08,193.79,133.28,191.4,133.28,191.4z"/>
	<polygon class="st7" points="93.24,176.68 118.55,165.18 118.89,169.71 95.24,177.34 	"/>
	<path class="st18" d="M160.17,125.9c-3.11,0.37-9.58,0.51-21.63-1.62c-18.56-3.29-38.01,6.16-38.52,6.4c0-0.01,0-0.01,0-0.01
		c6.14-7.79,22.15-23.79,45.53-15.45C152.71,117.76,157.3,121.61,160.17,125.9z"/>
	<path class="st18" d="M117.13,130.68c0,0,21.26-5.01,31.42,0c10.28,5.07,11.2,13.14,11.2,13.14s-3.74-6.32-19.07-10.25
		C125.35,129.63,117.13,130.68,117.13,130.68z"/>
	<path class="st19" d="M159.06,298.35l-2.09-23.16c-0.02-0.26-18.29,4.82-29.88-1.3c-9.4-4.96-14.71-28.13-14.71-28.13
		s3.39,25.84,4.93,26.22c0.7,0.17,7.83,4.09,17.73,10.56l-29.56,5.35l1.77,11.98c0,0,12.82-3.59,23.72-5.9s19.62-1.22,19.62-1.22
		C155.59,296.05,159.06,298.35,159.06,298.35z"/>
	<path class="st19" d="M219.11,278.9l-2.6,5.35c0,0-17.66-4.44-32.32-7.69c-8.31-1.85-25.23-24.82-26.35-26.34
		c-0.02-0.03-0.03-0.05-0.04-0.06c0.26,0.24,8.7,8.25,17.67,11.9C184.59,265.78,219.11,278.9,219.11,278.9z"/>
	<path class="st4" d="M103.72,184.79l-5-0.69c0,0-4.47-4.33-8.83-5.74s-7.83,0.47-7.83,0.47s-0.03-5.12,9.97-2.48
		C100.16,178.49,103.72,184.79,103.72,184.79z"/>
	<polygon class="st11" points="218.22,271.99 214.31,283.69 216.52,284.24 221.68,273.61 	"/>
	<polygon class="st20" points="116.53,248.63 121.65,251.9 125.79,248.04 125.59,244.93 121.38,248.24 115.99,245.33 	"/>
	<polygon class="st20" points="126.63,248.21 131.74,251.48 135.88,247.62 135.68,244.51 131.47,247.83 126.08,244.91 	"/>
	<polygon class="st20" points="136.94,247.33 142.05,250.6 146.19,246.74 146,243.62 141.78,246.94 136.39,244.03 	"/>
	<polygon class="st20" points="147.14,246.68 152.25,249.95 156.4,246.09 156.2,242.97 151.98,246.29 146.59,243.37 	"/>
	<polygon class="st20" points="122.92,256.26 128.04,259.53 132.18,255.67 131.98,252.55 127.77,255.87 122.38,252.96 	"/>
	<polygon class="st20" points="133.01,255.84 138.13,259.11 142.27,255.25 142.07,252.13 137.86,255.45 132.47,252.54 	"/>
	<polygon class="st20" points="143.33,254.96 148.44,258.23 152.58,254.37 152.38,251.25 148.17,254.57 142.78,251.65 	"/>
	<path class="st21" d="M187.68,262.32c0,0-2.41-2.13-10.54-6.21c-8.13-4.07-19.33-5.96-19.33-5.96s0.29-10.21,1.86-18.44
		s3.68-14.23,3.68-14.23l0.3,0.33c2.26,2.81,13.46,20.76,20.39,31.49L187.68,262.32z"/>
	<path class="st22" d="M229.92,295.17c-0.45,0.45-15.55-3.44-32.59-3.77l-1.5-0.02c-16.6-0.15-29.95,2.74-31.25,2.3
		c-0.72-0.25-0.49-1.36-0.03-2.63c0.38-1.09,0.95-2.27,1.21-3.14c0.6-1.89-4.11-17.63,0.73-35.77
		c5.53-20.74,21.65-43.92,22.65-45.35l0.05-0.06l13.13,2.8c0,0,1.99,2.95,4.84,7.52c1.65,2.63,3.58,5.79,5.58,9.24
		c2.13,3.68,4.34,7.67,6.37,11.69c3.72,7.35,6.82,14.74,7.68,20.26c1.54,9.86,1,18.12,0.34,23.43c-0.43,3.46-0.92,5.67-0.92,6.25
		C226.22,289.38,230.37,294.72,229.92,295.17z"/>
	<g>
		<path class="st23" d="M189.79,250.16c1.77,1.55,4.42,2.58,6.21,2.58c1.37,0,2.23-0.52,2.23-1.5c0-3.04-9.08-1.23-9.08-7.31
			c0-2.63,1.86-4.44,4.83-5.01v-3.63h3.24v3.51c2.06,0.22,4.07,0.91,5.55,1.86l-1.64,3.41c-1.82-1.06-4.1-1.79-5.5-1.79
			c-1.13,0-1.89,0.42-1.89,1.25c0,2.97,9.08,1.28,9.08,7.48c0,3.04-2.38,4.81-5.59,5.18v3.71h-3.24v-3.8
			c-2.21-0.34-4.32-1.28-5.89-2.58L189.79,250.16z"/>
	</g>
	<path class="st24" d="M183.61,241.65c-11.47,16.3-9.77,45.53-8.39,46.26c1.37,0.74,36.94,3.64,36.94,3.64l-14.83-0.15l-1.5-0.02
		l-31.29-0.33c0.39-1.08,0.95-2.27,1.22-3.14c0.6-1.89-4.11-17.63,0.73-35.77c5.52-20.73,21.65-43.92,22.65-45.35l0.05-0.07
		l5.93,2.8l12.04,7.51l0.76,0.47l4.82,8.76C212.74,226.28,195.07,225.34,183.61,241.65z"/>
	<polygon class="st25" points="251.1,216.67 212.91,212.93 212.91,220.11 255.83,237.63 	"/>
	<path class="st25" d="M216,214.84c-2.55-0.7-8.5-10.16-11.94-11.65c-3.44-1.49-12.63-4.71-12.63-4.71s-0.11,2.22,3.52,4.09
		c3.64,1.88,6.71,4.59,6.71,4.59s-5.11,0.84-9.77-0.32s-4.09-2.53-5.38-2.23c-1.29,0.29,0.9,3.71,4.04,4.79
		c3.09,1.07,2.29,0.75,2.29,0.75s-1.44,0.03-4.5-1.65c-3.67-2.01-2.49-3.24-3.62-2.95c-1.13,0.3-0.99,4.48,4.6,6.88
		c3.6,1.55,3.65,1.11,3.65,1.11s-0.08,0.17-4.42-1.47c-4.33-1.63-3.82-3.63-4.73-3.14c-0.91,0.49,1.17,5.01,5.41,6.68
		c4.24,1.66,4.89,0.82,4.89,0.82s-1.34,0.55-4.66-0.53c-3.26-1.06-4.66-3.7-5.15-2.3c-0.42,1.2,2.82,5.66,10.6,6.6
		c5.35,0.64,18.82,0.24,21.33,0.1C218.74,220.18,218.55,215.54,216,214.84z"/>
	<g>
		<polygon class="st26" points="263.45,293.6 263.73,290.53 305.46,290.15 298.01,293.6 		"/>
		<polygon class="st27" points="321.2,275.06 320,291.01 311.61,291.01 305.98,275.15 		"/>
		<polygon class="st27" points="295.35,294.08 310.25,287.19 320.16,287.19 337.44,294.08 		"/>
		<polygon class="st26" points="321.2,275.06 306.29,275.06 308.78,282.06 320.83,279.04 		"/>
		<polygon class="st26" points="319.95,287.19 323.6,294.08 337.23,294.08 		"/>
		<polygon class="st28" points="368.99,191.44 252.71,191.44 258.19,276.07 363.73,276.02 		"/>
		<path class="st29" d="M364.95,256.39c0,0-25.46-0.97-58.98-9.15s-51.58-29.73-51.58-29.73l3.79,58.56l105.54-0.05L364.95,256.39z"
			/>
		<polygon class="st30" points="258.19,276.07 257.06,275.06 248,189.6 368.99,191.44 252.71,191.44 		"/>
		<polygon class="st27" points="368.99,191.44 363.73,276.02 361.71,276.02 365.35,191.44 		"/>
	</g>
	<g>
		<g>
			<defs>
				<polygon id="SVGID_6_" points="1,1 2,1 1,2 				"/>
			</defs>
			<defs>
				<polygon id="SVGID_7_" points="-1,-1 -2,-1 -1,-2 				"/>
			</defs>
			<clipPath id="SVGID_8_">
				<use xlink:href="#SVGID_6_"  style="overflow:visible;"/>
			</clipPath>
			<clipPath id="SVGID_9_" class="st31">
				<use xlink:href="#SVGID_7_"  style="overflow:visible;"/>
			</clipPath>
			
				<linearGradient id="SVGID_10_" gradientUnits="userSpaceOnUse" x1="252.96" y1="194.54" x2="365.35" y2="194.54" gradientTransform="matrix(1 0 0 -1 0 402)">
				<stop  offset="0" style="stop-color:#FFFFFF"/>
				<stop  offset="0.7822" style="stop-color:#000000"/>
			</linearGradient>
			<polygon class="st32" points="253.69,203.94 363.56,223.64 365.35,191.28 252.96,191.28 			"/>
		</g>
	</g>
	
		<linearGradient id="SVGID_11_" gradientUnits="userSpaceOnUse" x1="252.96" y1="194.54" x2="365.35" y2="194.54" gradientTransform="matrix(1 0 0 -1 0 402)">
		<stop  offset="0" style="stop-color:#FFFFFF"/>
		<stop  offset="0.7822" style="stop-color:#000000"/>
	</linearGradient>
	<polygon class="st33" points="253.69,203.94 363.56,223.64 365.35,191.28 252.96,191.28 	"/>
	<path class="st34" d="M251.29,220.57c0,0-1.31,7.88-9.56,8.44c-6.32,0.43-28.06-8.59-28.06-8.59l39.31,16.04L251.29,220.57z"/>
	<path class="st22" d="M213.91,191.98l-10.28,12.74l-1.97,2.45c0,0-5.53,0.82-9.54-0.26s-4.48-1.95-4.48-1.95l-9.36-13.15
		c0,0,8.17-8.67,14.1-4.47c5.94,4.19,9.91,6.8,15.45,5.91C213.01,192.42,213.82,192.02,213.91,191.98z"/>
	<path class="st35" d="M213.91,191.98l-10.28,12.74c-2.93,0.62-7.01,0.83-8.68-2.14c-2.74-4.89-2.57-15.24-2.57-15.24
		c5.94,4.19,9.91,6.8,15.45,5.91C213.01,192.42,213.82,192.02,213.91,191.98z"/>
	<path class="st4" d="M148.19,271.48c2.49,0.29,16.2-6.02,16.2-6.02l-0.12,4.77c0,0,3.43,2.11,7.94,2.74
		c4.51,0.63,7.79-0.05,8.82,0.67c1.03,0.71-5.42,2.45-8.55,2.06c-3.18-0.39-4.28-0.37-4.28-0.37s2.85,0.67,6.81,0.67
		c3.97,0,7.47-1.21,8.36-0.55s-5.12,3.22-10.88,3.36c-3.72,0.09-5.45-0.6-5.45-0.6s1.87,0.47,6.26,0.56c4.39,0.1,7.1-1.37,7.72-0.62
		c0.63,0.76-5.42,3.16-9.74,3.12c-4.31-0.03-5.88-0.56-5.88-0.56s2.43,0.88,5.74,1.11c3.24,0.22,7.77-1.47,6.98-0.56
		c-0.8,0.9-6.12,4.34-13.29,2.41c-4.93-1.33-16.63-6.44-18.79-7.45C143.9,275.2,145.7,271.18,148.19,271.48z"/>
	<polygon class="st9" points="151.18,268.66 151.67,279.54 105.48,287.91 115.08,269.88 	"/>
	<path class="st35" d="M227.14,281.65l-1.6,6.25c0,0-2.95-1.4-10.39-3.29c-7.45-1.89-9.69-2.56-9.69-2.56s-0.78-12.79,3.13-25.94
		c3.92-13.14,10.53-18.15,10.53-18.15c3.72,7.35,6.82,14.74,7.68,20.26C228.33,268.08,227.8,276.34,227.14,281.65z"/>
	<path class="st21" d="M151.18,268.66l-34.79,1.17c0,0-7.14-0.47-11.55,2.47c-4.41,2.94-7.54,10.94-7.54,10.94
		s16.81-8.31,28.67-10.41c16.81-2.98,25.25-3.18,25.25-3.18L151.18,268.66z"/>
	<polygon class="st11" points="151.11,268.37 147.07,268.8 148.58,280.1 151.67,279.54 	"/>
	<path class="st12" d="M140.73,214.07c0,0-2.04,18.43-4.27,18.43c-0.52,0-1.64-0.98-2.37-1.67c-0.48-0.75,0,0,0,0
		s2.45-4.95,3.04-8.29s1.24-8.9,1.24-8.9L140.73,214.07z"/>
	<path class="st10" d="M130.68,208.01h1.29l1.74,6.97c0,0-1.05,0.36-1.86,0.36s-1.74-0.03-1.74-0.03L130.68,208.01z"/>
	<path class="st12" d="M130.68,208.01h1.29l1.74,6.97c0,0-1.05,0.36-1.86,0.36s-1.74-0.03-1.74-0.03L130.68,208.01z"/>
	<polygon class="st13" points="119.57,212.58 126.03,205.07 131.13,207.61 129.71,220.67 	"/>
	<polygon class="st13" points="138.36,213.63 133.87,205.78 131.46,207.51 135.01,220.15 	"/>
	<g>
		<path d="M151.24,147.66c0,0,2.95,0.71,5.39,2.38s4.15,3.77,4.15,3.77l0.43-2.1c0,0-1.41-3.62-3.94-5.42
			c-2.39-1.7-4.27-2.02-4.27-2.02l-0.69,1.86l-1.29-2.31C151.03,143.82,150.56,146.71,151.24,147.66z"/>
		<path class="st36" d="M200.81,150.6l7.19,4.5c0,0,5.03-6.22,11.1-7.44c7.54-1.52,15.27,1.15,15.27,1.15l-10.31-3.57
			C224.06,145.24,211.43,142.21,200.81,150.6z"/>
		<path class="st37" d="M204.08,149.29l3.98,1.96c0,0,5.71-3.95,10.78-4.6c5.06-0.65,7.25,0,7.25,0l-2.94-1.24c0,0-3.1-0.94-8.85,0
			C208.55,146.35,204.08,149.29,204.08,149.29z"/>
		<path class="st36" d="M226.09,165.48c0,0,3.59,7.41,13.39,10.11s16.36,1.75,16.36,1.75l13.42-4.53c0,0-13.98,0.9-22.34-1.32
			c-8.36-2.21-11.23-6.31-11.23-6.31L226.09,165.48z"/>
		<path class="st37" d="M230.07,167.58c0,0,2.48,4.7,12.02,7.12c9.54,2.42,12.28,1.57,12.28,1.57l9.01-2.42
			c0,0-10.32,0.85-17.31-1.04c-6.99-1.89-9.8-5.22-9.8-5.22h-6.2V167.58z"/>
		<path class="st36" d="M254.2,85.93c0,0-2.89,5.97-10.78,8.15c-7.89,2.17-13.18,1.41-13.18,1.41l-10.81-3.65
			c0,0,11.26,0.72,17.99-1.06c6.73-1.78,9.05-5.08,9.05-5.08L254.2,85.93z"/>
		<path class="st37" d="M250.99,87.62c0,0-2,3.79-9.68,5.73c-7.68,1.95-9.89,1.26-9.89,1.26l-7.26-1.95c0,0,8.31,0.68,13.94-0.84
			c5.63-1.53,7.89-4.21,7.89-4.21L250.99,87.62L250.99,87.62z"/>
		<path class="st36" d="M150.87,89.73c0,0,5.97,2.42,10.34,9.86c4.37,7.45,4.7,11.17,4.7,11.17l6.91-1.57c0,0-0.69-7.54-3.04-13.52
			c-2.35-5.98-5.34-8.13-5.34-8.13L150.87,89.73z"/>
		<path class="st37" d="M155.39,90.53c0,0,3.97,2.06,7.54,8.13s4.46,9.85,4.46,9.85l3.97-0.88c0,0-0.54-6.07-2.6-10.92
			c-2.06-4.85-4.19-7.25-4.19-7.25L155.39,90.53z"/>
	</g>
	<g>
		<polygon class="st38" points="375.29,292.88 28.96,289.29 28.96,297.59 375.29,297.59 		"/>
		<polygon class="st39" points="42.45,297.59 45.59,316.76 358.49,311.84 364.75,297.59 		"/>
		<polygon class="st12" points="321.82,292.32 312.76,297.59 198.3,307.18 165.83,314.87 45.59,316.76 42.45,297.59 69.63,297.59 
			91.28,289.93 		"/>
	</g>
</g>
<polygon class="st40" points="0,400 18.67,363.16 382.5,363.16 400,400 "/>
<g>
	<g class="st41">
		<path class="st42" d="M275.65,396.93c0-11.15,7.83-24.71,17.49-30.29c4.84-2.79,9.22-3.05,12.38-1.21l0,0l3.31,1.93l-0.96,0.09
			c1.74,2.13,2.76,5.28,2.76,9.29c0,11.15-7.83,24.71-17.49,30.29c-3.32,1.92-6.42,2.64-9.06,2.31l0.07,0.89l-3.36-1.96
			c-0.01-0.01-0.03-0.02-0.04-0.02l-0.14-0.08h0.01C277.55,406.29,275.65,402.41,275.65,396.93z"/>
		
			<ellipse transform="matrix(0.5 -0.866 0.866 0.5 -188.4608 451.1395)" class="st43" cx="296.47" cy="388.78" rx="24.73" ry="14.28"/>
	</g>
	<path class="st44" d="M295.35,415.12c-12.06,0-24.13-2.65-33.31-7.95c-8.93-5.16-13.85-12.02-13.85-19.33s4.92-14.18,13.85-19.33
		c18.37-10.6,48.25-10.6,66.62,0c8.93,5.16,13.85,12.02,13.85,19.33s-4.92,14.18-13.85,19.33
		C319.48,412.47,307.42,415.12,295.35,415.12z M295.35,360.9c-12,0-24,2.64-33.14,7.91c-8.82,5.09-13.67,11.85-13.67,19.03
		s4.86,13.94,13.67,19.03c18.27,10.55,48,10.55,66.27,0c8.82-5.09,13.68-11.85,13.68-19.03s-4.86-13.94-13.67-19.03
		C319.36,363.53,307.35,360.9,295.35,360.9z"/>
	<path class="st45" d="M295.35,422.44c-15.31,0-30.62-3.36-42.27-10.09c-11.32-6.54-17.56-15.24-17.56-24.5
		c0-9.27,6.24-17.97,17.56-24.51c23.31-13.46,61.23-13.46,84.54,0c11.32,6.54,17.56,15.24,17.56,24.5c0,9.27-6.24,17.97-17.56,24.51
		C325.97,419.07,310.66,422.44,295.35,422.44z M295.35,353.58c-15.25,0-30.49,3.35-42.1,10.05c-11.21,6.47-17.39,15.07-17.39,24.21
		c0,9.13,6.17,17.73,17.39,24.2c23.21,13.4,60.98,13.4,84.19,0c11.21-6.47,17.39-15.07,17.39-24.21c0-9.13-6.17-17.73-17.39-24.2
		C325.85,356.93,310.6,353.58,295.35,353.58z"/>
	<path class="st43" d="M295.35,409.36c-9.51,0-19.01-2.09-26.25-6.27c-7.04-4.07-10.92-9.49-10.92-15.26s3.88-11.19,10.92-15.26
		c14.47-8.36,38.03-8.36,52.5,0c7.04,4.07,10.92,9.49,10.92,15.26s-3.88,11.19-10.92,15.26
		C314.37,407.27,304.86,409.36,295.35,409.36z M295.35,366.66c-9.44,0-18.89,2.08-26.08,6.23c-6.93,4-10.75,9.31-10.75,14.96
		s3.82,10.95,10.75,14.96c14.38,8.3,37.77,8.3,52.15,0c6.93-4,10.75-9.31,10.75-14.96s-3.82-10.95-10.75-14.96
		C314.24,368.73,304.8,366.66,295.35,366.66z"/>
	<g>
		<g>
			<defs>
				<polygon id="SVGID_12_" points="267.97,392.51 278.96,398.84 322.73,373.57 322.73,324.97 267.97,356.59 				"/>
			</defs>
			<clipPath id="SVGID_13_">
				<use xlink:href="#SVGID_12_"  style="overflow:visible;"/>
			</clipPath>
			<g class="st46">
				<path class="st42" d="M275.65,396.93c0-11.15,7.83-24.71,17.49-30.29c4.84-2.79,9.22-3.05,12.38-1.21l0,0l3.31,1.93l-0.96,0.09
					c1.74,2.13,2.76,5.28,2.76,9.29c0,11.15-7.83,24.71-17.49,30.29c-3.32,1.92-6.42,2.64-9.06,2.31l0.07,0.89l-3.36-1.96
					c-0.01-0.01-0.03-0.02-0.04-0.02l-0.14-0.08h0.01C277.55,406.29,275.65,402.41,275.65,396.93z"/>
				
					<ellipse transform="matrix(0.5 -0.866 0.866 0.5 -188.4608 451.1395)" class="st43" cx="296.47" cy="388.78" rx="24.73" ry="14.28"/>
				<path class="st47" d="M289.45,409.38c-1.54,0-2.97-0.36-4.23-1.09c-3.05-1.76-4.74-5.46-4.74-10.41
					c0-10.11,7.12-22.44,15.87-27.49c4.29-2.48,8.33-2.87,11.39-1.1c3.05,1.76,4.74,5.46,4.74,10.41c0,10.11-7.12,22.44-15.87,27.49
					C294.09,408.64,291.65,409.38,289.45,409.38z M303.51,368.7c-2.11,0-4.46,0.71-6.91,2.12c-8.61,4.97-15.62,17.11-15.62,27.06
					c0,4.76,1.59,8.31,4.49,9.98c2.89,1.67,6.76,1.28,10.88-1.1c8.61-4.97,15.62-17.11,15.62-27.06c0-4.76-1.59-8.31-4.49-9.98
					C306.31,369.03,304.97,368.7,303.51,368.7z"/>
			</g>
		</g>
	</g>
</g>
<path class="st48" d="M82.07,43.38"/>
<g>
	<path class="st42" d="M346.34,102.09c10.12-2.53,20.64-12.71,23.51-22.74c1.44-5.02,0.68-9.06-1.71-11.51l0,0l-2.51-2.56l0.14,0.89
		c-2.33-1.1-5.42-1.3-9.05-0.4c-10.12,2.53-20.64,12.71-23.51,22.74c-0.99,3.45-0.94,6.43-0.04,8.75l-0.82,0.13l2.54,2.6
		c0.01,0.01,0.02,0.02,0.03,0.03l0.1,0.11v-0.01C337.42,102.5,341.37,103.34,346.34,102.09z"/>
	
		<ellipse transform="matrix(0.7188 -0.6952 0.6952 0.7188 41.576 265.506)" class="st43" cx="349" cy="81.36" rx="23.13" ry="13.35"/>
	<path class="st47" d="M340.55,98.15c-2.67,0-4.88-0.82-6.43-2.42c-2.25-2.33-2.81-6.02-1.56-10.4
		c2.55-8.93,11.96-18.03,20.97-20.28c4.42-1.11,8.09-0.43,10.34,1.9s2.81,6.02,1.56,10.4c-2.55,8.93-11.96,18.03-20.97,20.28
		C343.08,97.98,341.77,98.15,340.55,98.15z M357.45,65.01c-1.18,0-2.45,0.17-3.8,0.5c-8.86,2.22-18.12,11.17-20.63,19.95
		c-1.2,4.21-0.69,7.74,1.44,9.94c2.13,2.21,5.65,2.84,9.89,1.77c8.86-2.22,18.12-11.17,20.63-19.95c1.2-4.21,0.69-7.74-1.44-9.94
		C362.09,65.78,359.99,65.01,357.45,65.01z"/>
</g>
<g>
	<g>
		<path class="st40" d="M257.46,50.25c0,0,2.42-15.53,9.23-14.93c1.89,0.17,3.16,2.08,4.01,4.13c0.52,1.27,2.33,1.18,2.7-0.14
			c1.8-6.31,5.48-15.95,11.2-15.95c5.91,0,6.1,11.02,5.67,17.73c-0.07,1.01,1.24,1.46,1.81,0.62c1.56-2.29,3.83-4.49,6.59-3.85
			c5.38,1.24,3.93,12.38,3.93,12.38L257.46,50.25L257.46,50.25z"/>
		<path class="st40" d="M10.7,148.01c0,0,2.42-15.53,9.23-14.93c1.89,0.17,3.16,2.08,4.01,4.13c0.51,1.27,2.33,1.18,2.7-0.14
			c1.8-6.31,5.48-15.95,11.2-15.95c5.91,0,6.1,11.02,5.67,17.73c-0.07,1.01,1.24,1.46,1.81,0.62c1.56-2.29,3.83-4.49,6.59-3.85
			c5.38,1.24,3.93,12.38,3.93,12.38L10.7,148.01L10.7,148.01z"/>
		<path class="st40" d="M337.12,146.21c0,0,2.42-15.53,9.23-14.93c1.89,0.17,3.16,2.08,4.01,4.13c0.52,1.27,2.33,1.18,2.7-0.14
			c1.8-6.31,5.48-15.95,11.2-15.95c5.91,0,6.1,11.02,5.67,17.73c-0.07,1.01,1.24,1.46,1.81,0.62c1.56-2.29,3.83-4.49,6.59-3.85
			c5.38,1.24,3.93,12.38,3.93,12.38L337.12,146.21L337.12,146.21z"/>
		<path class="st40" d="M80.86,65.89c0,0,2.42-15.53,9.23-14.93c1.89,0.17,3.16,2.08,4.01,4.13c0.51,1.27,2.33,1.18,2.7-0.14
			c1.8-6.31,5.48-15.95,11.2-15.95c5.91,0,6.1,11.02,5.67,17.73c-0.07,1.01,1.24,1.46,1.81,0.62c1.56-2.29,3.83-4.49,6.59-3.85
			c5.38,1.24,3.93,12.38,3.93,12.38L80.86,65.89L80.86,65.89z"/>
	</g>
</g>
<defs>
	<filter id="Adobe_OpacityMaskFilter" filterUnits="userSpaceOnUse" x="0.46" y="50.91" width="365.35" height="256.79">
		<feFlood  style="flood-color:white;flood-opacity:1" result="back"/>
		<feBlend  in="SourceGraphic" in2="back" mode="normal"/>
	</filter>
</defs>
<mask maskUnits="userSpaceOnUse" x="0.46" y="50.91" width="365.35" height="256.79" id="SVGID_14_">
	<g class="st49">
		<defs>
			<filter id="Adobe_OpacityMaskFilter_1_" filterUnits="userSpaceOnUse" x="0.46" y="50.91" width="365.35" height="256.79">
				<feFlood  style="flood-color:white;flood-opacity:1" result="back"/>
				<feBlend  in="SourceGraphic" in2="back" mode="normal"/>
			</filter>
		</defs>
		<mask maskUnits="userSpaceOnUse" x="0.46" y="50.91" width="365.35" height="256.79" id="SVGID_14_">
			<g class="st50">
			</g>
		</mask>
		<linearGradient id="SVGID_15_" gradientUnits="userSpaceOnUse" x1="0.4605" y1="179.3" x2="365.8095" y2="179.3">
			<stop  offset="4.950500e-03" style="stop-color:#000000"/>
			<stop  offset="1" style="stop-color:#FFFFFF"/>
		</linearGradient>
		<polygon class="st51" points="257.29,274.39 248.46,191.16 365.81,192.84 5.99,50.91 0.46,307.69 		"/>
	</g>
</mask>
<linearGradient id="SVGID_16_" gradientUnits="userSpaceOnUse" x1="0.4605" y1="179.3" x2="365.8095" y2="179.3">
	<stop  offset="4.950571e-03" style="stop-color:#4D1166"/>
	<stop  offset="1" style="stop-color:#FFFFA5"/>
</linearGradient>
<polygon class="st52" points="257.29,274.39 248.46,191.16 365.81,192.84 5.99,50.91 0.46,307.69 "/>
<path class="st40" d="M465.17,198.48"/>
</svg>
